<?xml version="1.0" standalone="no"?><!DOCTYPE svg PUBLIC "-//W3C//DTD SVG 1.1//EN" "http://www.w3.org/Graphics/SVG/1.1/DTD/svg11.dtd"><svg t="1501216553396" class="icon" style="" viewBox="0 0 1024 1024" version="1.1" xmlns="http://www.w3.org/2000/svg" p-id="7336" xmlns:xlink="http://www.w3.org/1999/xlink" width="16" height="16"><defs><style type="text/css"></style></defs><path d="M512 64C264.576 64 64 264.576 64 512s200.576 448 448 448 448-200.576 448-448S759.424 64 512 64zM540.864 752.32l-74.24 0 0-70.144 74.24 0L540.864 752.32zM538.816 628.416l0 27.136L465.152 655.552l1.024-46.592C468.16 515.392 609.92 467.264 610.496 397.696c0.512-45.056-51.776-77.312-102.4-77.312-46.592 0-115.648 36.864-115.648 116.16L323.904 436.544c0-120.768 89.024-176.576 179.072-177.088 113.6-1.536 180.096 50.112 181.12 150.912C685.12 516.352 538.816 527.616 538.816 628.416z" p-id="7337" fill="#1296db"></path></svg>