<?xml version="1.0" standalone="no"?><!DOCTYPE svg PUBLIC "-//W3C//DTD SVG 1.1//EN" "http://www.w3.org/Graphics/SVG/1.1/DTD/svg11.dtd"><svg t="1501218286223" class="icon" style="" viewBox="0 0 1024 1024" version="1.1" xmlns="http://www.w3.org/2000/svg" p-id="3608" xmlns:xlink="http://www.w3.org/1999/xlink" width="32" height="32"><defs><style type="text/css"></style></defs><path d="M746.931149 395.043265c-29.913287-110.261243-125.363196-219.775472-250.854305-219.775472-145.793504 0-250.53094 101.71459-260.559341 263.714194-91.295286 0-170.507372 65.769936-170.507372 167.466106 0 101.713566 81.832773 240.072751 167.822217 240.072751l559.39852 0c106.263186-2.01182 167.82017-152.082744 167.82017-267.823791C960.052061 461.641055 902.798079 356.583325 746.931149 395.043265L746.931149 395.043265 746.931149 395.043265zM678.864914 576.903196 520.068258 731.563648c-1.964748 1.898233-4.631484 3.080152-7.53665 3.080152-2.883677 0-5.571902-1.180895-7.541767-3.080152L346.198302 576.903196c-1.054005-1.027399-1.489934-2.730181-0.941442-4.259 0.608867-1.487887 1.964748-2.448772 3.432169-2.448772l102.69901 0-0.193405-159.552879c0-2.973728 1.071402-5.943362 3.212158-8.219195 2.183735-2.270716 5.02648-3.406586 7.867178-3.406586l100.584859 0c2.774183 0 5.609765 1.13587 7.79964 3.406586 2.183735 2.27174 3.231601 5.245468 3.231601 8.219195l-0.220011 159.552879 102.704127 0c1.462305 0 2.818185 0.959861 3.432169 2.448772C680.350754 574.173015 679.912779 575.875796 678.864914 576.903196L678.864914 576.903196 678.864914 576.903196zM678.864914 576.903196" p-id="3609" fill="#1296db"></path></svg>