<?xml version="1.0" standalone="no"?><!DOCTYPE svg PUBLIC "-//W3C//DTD SVG 1.1//EN" "http://www.w3.org/Graphics/SVG/1.1/DTD/svg11.dtd"><svg t="1501219067953" class="icon" style="" viewBox="0 0 1024 1024" version="1.1" xmlns="http://www.w3.org/2000/svg" p-id="9590" xmlns:xlink="http://www.w3.org/1999/xlink" width="32" height="32"><defs><style type="text/css"></style></defs><path d="M609.148718 714.174359 338.707692 714.174359c-13.128205 0-23.630769 10.502564-23.630769 23.630769s10.502564 23.630769 23.630769 23.630769l270.441026 0c13.128205 0 23.630769-10.502564 23.630769-23.630769S622.276923 714.174359 609.148718 714.174359z" p-id="9591" fill="#1296db"></path><path d="M338.707692 632.779487l173.292308 0c13.128205 0 23.630769-10.502564 23.630769-23.630769s-10.502564-23.630769-23.630769-23.630769l-173.292308 0c-13.128205 0-23.630769 10.502564-23.630769 23.630769S325.579487 632.779487 338.707692 632.779487z" p-id="9592" fill="#1296db"></path><path d="M645.907692 425.353846c10.502564-15.753846 15.753846-34.133333 15.753846-55.138462 0-28.882051-10.502564-55.138462-28.882051-73.517949-18.379487-21.005128-44.635897-31.507692-73.517949-31.507692-26.25641 0-52.512821 10.502564-73.517949 31.507692-39.384615 42.010256-39.384615 107.651282 0 147.035897 18.379487 21.005128 44.635897 31.507692 73.517949 31.507692 18.379487 0 36.758974-5.251282 55.138462-15.753846l76.14359 76.14359c5.251282 5.251282 10.502564 7.876923 15.753846 7.876923s13.128205-2.625641 15.753846-7.876923c10.502564-10.502564 10.502564-23.630769 0-34.133333L645.907692 425.353846zM596.020513 412.225641c-21.005128 21.005128-57.764103 21.005128-78.769231 0-21.005128-21.005128-21.005128-57.764103 0-78.769231 10.502564-10.502564 23.630769-15.753846 39.384615-15.753846 15.753846 0 28.882051 5.251282 39.384615 15.753846 10.502564 10.502564 15.753846 23.630769 15.753846 39.384615C611.774359 385.969231 606.523077 401.723077 596.020513 412.225641z" p-id="9593" fill="#1296db"></path><path d="M779.815385 157.538462 270.441026 157.538462C244.184615 157.538462 223.179487 178.54359 223.179487 204.8l0 611.774359c0 26.25641 21.005128 47.261538 47.261538 47.261538l506.748718 0c26.25641 0 47.261538-21.005128 47.261538-47.261538L824.451282 204.8C827.076923 178.54359 806.071795 157.538462 779.815385 157.538462zM779.815385 286.194872l0 514.625641c0 7.876923-7.876923 15.753846-15.753846 15.753846L286.194872 816.574359c-7.876923 0-15.753846-7.876923-15.753846-15.753846l0-577.641026c0-7.876923 7.876923-15.753846 15.753846-15.753846l475.241026 0c7.876923 0 15.753846 7.876923 15.753846 15.753846L777.189744 286.194872z" p-id="9594" fill="#1296db"></path></svg>