<?xml version="1.0" standalone="no"?><!DOCTYPE svg PUBLIC "-//W3C//DTD SVG 1.1//EN" "http://www.w3.org/Graphics/SVG/1.1/DTD/svg11.dtd"><svg t="1501216147265" class="icon" style="" viewBox="0 0 1024 1024" version="1.1" xmlns="http://www.w3.org/2000/svg" p-id="3469" xmlns:xlink="http://www.w3.org/1999/xlink" width="16" height="16"><defs><style type="text/css"></style></defs><path d="M1002.37 449.766c-3.874-21.495-24.602-43.383-46.106-48.23l-16.076-3.678c-37.769-11.426-71.288-36.42-92.596-73.225-21.307-36.992-26.342-79.027-17.04-117.572l5.034-15.112c6.391-20.924-1.937-49.784-18.79-64.12 0 0-15.104-12.783-57.728-37.384-42.616-24.406-61.022-31.19-61.022-31.19-20.713-7.552-49.769-0.384-64.873 15.693l-11.238 12.007c-28.664 27.119-67.209 43.588-109.833 43.588-42.616 0-81.553-16.666-110.217-43.98l-10.846-11.615c-14.917-16.076-44.16-23.253-64.888-15.692 0 0-18.594 6.784-61.21 31.189-42.615 24.798-57.531 37.58-57.531 37.58-16.853 14.14-25.182 42.804-18.79 63.924l4.642 15.3c9.105 38.554 4.266 80.393-17.05 117.385-21.308 37.01-55.202 62.191-93.167 73.412l-15.496 3.49c-21.308 4.847-42.232 26.54-46.097 48.23 0 0-3.49 19.38-3.49 68.583 0 49.186 3.49 68.566 3.49 68.566 3.865 21.7 24.601 43.4 46.097 48.23l15.104 3.49c37.973 11.23 72.064 36.42 93.363 73.6 21.316 37.01 26.342 79.044 17.05 117.581l-4.455 14.916c-6.391 20.924 1.937 49.792 18.79 64.12 0 0 15.113 12.783 57.72 37.393 42.624 24.602 61.022 31.19 61.022 31.19 20.727 7.543 49.783 0.383 64.887-15.702l10.658-11.426c28.86-27.315 67.602-43.972 110.413-43.972s81.75 16.853 110.413 44.177l10.659 11.417c14.916 16.086 44.16 23.254 64.887 15.693 0 0 18.603-6.775 61.21-31.19 42.615-24.584 57.531-37.384 57.531-37.384 16.854-14.14 25.182-43 18.79-64.11l-4.649-15.498c-9.105-38.366-4.258-80.196 17.05-117.001 21.316-37 55.398-62.379 93.363-73.617l15.112-3.49c21.308-4.83 42.232-26.53 46.106-48.23 0 0 3.482-19.371 3.482-68.566-0.195-49.39-3.685-68.77-3.685-68.77M512.102 715.341c-108.663 0-197.001-88.132-197.001-196.992 0-108.672 88.14-196.813 197.001-196.813 108.672 0 197.001 88.14 197.001 197.001-0.196 108.672-88.329 196.804-197.001 196.804m0 0z" fill="#1296db" p-id="3470"></path></svg>