<?xml version="1.0" standalone="no"?><!DOCTYPE svg PUBLIC "-//W3C//DTD SVG 1.1//EN" "http://www.w3.org/Graphics/SVG/1.1/DTD/svg11.dtd"><svg t="1501218763050" class="icon" style="" viewBox="0 0 1024 1024" version="1.1" xmlns="http://www.w3.org/2000/svg" p-id="8489" xmlns:xlink="http://www.w3.org/1999/xlink" width="32" height="32"><defs><style type="text/css"></style></defs><path d="M837.545984 303.8976c3.823616 4.368384 6.007808 9.419776 6.555648 15.156224 0.543744 5.732352 0.820224 10.24 0.820224 13.515776l0 439.912448c0 25.667584-8.73984 47.239168-26.216448 64.715776-17.475584 17.475584-40.687616 26.211328-69.632 26.211328L275.57888 863.409152c-29.493248 0-52.841472-7.370752-70.044672-22.115328-17.205248-14.748672-25.803776-37.136384-25.803776-67.176448l0-479.232c0-29.492224 8.598528-53.111808 25.803776-70.859776 17.204224-17.747968 40.552448-26.624 70.044672-26.624l434.174976 0c5.459968 0 10.919936 0.684032 16.384 2.048 5.459968 1.363968 9.283584 3.139584 11.467776 5.323776L837.545984 303.8976zM692.549632 274.404352c-1.091584-16.927744-10.103808-25.396224-27.035648-25.396224L308.34688 249.008128c-8.192-0.543744-14.748672 1.640448-19.66592 6.556672-4.91008 4.916224-7.370752 10.647552-7.370752 17.204224l0 133.527552c0 5.459968 1.226752 11.060224 3.688448 16.791552 2.455552 5.736448 5.871616 10.924032 10.24 15.567872 4.36736 4.639744 9.419776 8.464384 15.157248 11.467776 5.731328 3.004416 11.875328 4.503552 18.432 4.503552l311.294976 0c14.743552 0 27.167744-4.368384 37.271552-13.108224 10.103808-8.735744 15.156224-21.843968 15.156224-39.319552L692.550656 274.404352 692.549632 274.404352zM692.549632 643.045376c0-23.484416-12.015616-35.495936-36.043776-36.043776L318.173184 607.0016c-12.55936 0-21.843968 3.275776-27.851776 9.832448-6.007808 6.551552-9.012224 15.292416-9.012224 26.212352l0 119.604224 411.240448 0L692.549632 643.045376 692.549632 643.045376zM692.549632 643.045376" p-id="8490" fill="#1296db"></path></svg>